<svg width="200px" height="211px" viewBox="0 0 200 211" version="1.1" xmlns="http://www.w3.org/2000/svg" xmlns:xlink="http://www.w3.org/1999/xlink">
    <defs>
        <linearGradient x1="16.5278314%" y1="82.398806%" x2="66.6130198%" y2="41.9869803%" id="linearGradient-1">
            <stop stop-color="#9B653E" offset="0%"></stop>
            <stop stop-color="#DFBA95" offset="100%"></stop>
        </linearGradient>
        <radialGradient cx="69.6629944%" cy="12.7622171%" fx="69.6629944%" fy="12.7622171%" r="56.9813443%" gradientTransform="translate(0.696630,0.127622),scale(0.964410,1.000000),rotate(4.215021),translate(-0.696630,-0.127622)" id="radialGradient-2">
            <stop stop-color="#DFBA95" offset="0%"></stop>
            <stop stop-color="#EAC9A7" offset="32.36%"></stop>
            <stop stop-color="#F4D6B7" offset="71.5%"></stop>
            <stop stop-color="#F8DBBD" offset="100%"></stop>
        </radialGradient>
        <radialGradient cx="-14.846729%" cy="66.9285796%" fx="-14.846729%" fy="66.9285796%" r="68.5465366%" gradientTransform="translate(-0.148467,0.669286),scale(1.000000,0.577599),rotate(177.850912),translate(0.148467,-0.669286)" id="radialGradient-3">
            <stop stop-color="#9B5332" offset="0%"></stop>
            <stop stop-color="#AA6947" offset="12.27%"></stop>
            <stop stop-color="#C28B69" offset="32.68%"></stop>
            <stop stop-color="#D7AB8A" offset="52.26%"></stop>
            <stop stop-color="#E7C4A5" offset="70.52%"></stop>
            <stop stop-color="#F3D6B8" offset="86.95%"></stop>
            <stop stop-color="#F9DDBF" offset="100%"></stop>
        </radialGradient>
        <radialGradient cx="-88.1990611%" cy="111.657295%" fx="-88.1990611%" fy="111.657295%" r="192.584883%" gradientTransform="translate(-0.881991,1.116573),scale(1.000000,0.579017),rotate(177.850912),translate(0.881991,-1.116573)" id="radialGradient-4">
            <stop stop-color="#5B2E11" stop-opacity="0.8471" offset="0%"></stop>
            <stop stop-color="#BD8F6B" stop-opacity="0" offset="100%"></stop>
        </radialGradient>
        <linearGradient x1="50.0000178%" y1="82.6003254%" x2="50.0000178%" y2="14.7437891%" id="linearGradient-5">
            <stop stop-color="#E89B41" offset="0%"></stop>
            <stop stop-color="#F0AA46" offset="64.08%"></stop>
            <stop stop-color="#F6B548" offset="100%"></stop>
        </linearGradient>
        <radialGradient cx="103.588418%" cy="42.5546427%" fx="103.588418%" fy="42.5546427%" r="84.5961554%" gradientTransform="translate(1.035884,0.425546),scale(1.000000,0.284385),rotate(-179.278039),translate(-1.035884,-0.425546)" id="radialGradient-6">
            <stop stop-color="#9B653E" offset="0%"></stop>
            <stop stop-color="#BF8F68" stop-opacity="0" offset="100%"></stop>
        </radialGradient>
        <radialGradient cx="663.67726%" cy="5335.54681%" fx="663.67726%" fy="5335.54681%" r="3011.9621%" id="radialGradient-7">
            <stop stop-color="#33322E" offset="31.27%"></stop>
            <stop stop-color="#5A5754" stop-opacity="0.1365" offset="90.62%"></stop>
            <stop stop-color="#605D5A" stop-opacity="0" offset="100%"></stop>
        </radialGradient>
        <linearGradient x1="20.3311721%" y1="50.0000922%" x2="120.331172%" y2="50.0000922%" id="linearGradient-8">
            <stop stop-color="#E89B41" offset="0%"></stop>
            <stop stop-color="#F0AA46" offset="64.08%"></stop>
            <stop stop-color="#F6B548" offset="100%"></stop>
        </linearGradient>
        <radialGradient cx="80.9031811%" cy="30.3515431%" fx="80.9031811%" fy="30.3515431%" r="61.3883493%" gradientTransform="translate(0.809032,0.303515),scale(1.000000,0.914638),rotate(180.000000),translate(-0.809032,-0.303515)" id="radialGradient-9">
            <stop stop-color="#5A463A" offset="0%"></stop>
            <stop stop-color="#9B653E" offset="98.49%"></stop>
        </radialGradient>
        <radialGradient cx="-0.624258064%" cy="55.4403141%" fx="-0.624258064%" fy="55.4403141%" r="77.7957919%" gradientTransform="translate(-0.006243,0.554403),scale(1.000000,0.516047),rotate(172.298266),translate(0.006243,-0.554403)" id="radialGradient-10">
            <stop stop-color="#5A463A" offset="0%"></stop>
            <stop stop-color="#9B653E" offset="98.49%"></stop>
        </radialGradient>
        <radialGradient cx="96.9181374%" cy="59.1375539%" fx="96.9181374%" fy="59.1375539%" r="58.0752004%" gradientTransform="translate(0.969181,0.591376),scale(1.000000,0.500290),rotate(174.127175),translate(-0.969181,-0.591376)" id="radialGradient-11">
            <stop stop-color="#9B653E" offset="0.03%"></stop>
            <stop stop-color="#BA8A63" stop-opacity="0.1178" offset="88.22%"></stop>
            <stop stop-color="#BF8F68" stop-opacity="0" offset="100%"></stop>
        </radialGradient>
    </defs>
    <g id="Share-to-Teams" stroke="none" stroke-width="1" fill="none" fill-rule="evenodd">
        <g id="Welcome_to_Teams" fill-rule="nonzero">
            <g id="Group" transform="translate(0.000000, 11.000000)">
                <path d="M103.0564,199.2023 L103.0562,199.2023 C50.0318,199.2023 7.0471,156.2176 7.0471,103.1932 L7.0471,103.193 C7.0471,50.1686 50.0318,7.1839 103.0562,7.1839 L103.0564,7.1839 C156.0808,7.1839 199.0655,50.1686 199.0655,103.193 L199.0655,103.1932 C199.0655,156.2176 156.0807,199.2023 103.0564,199.2023 Z" id="Path" fill="#EDEBE9"></path>
                <g>
                    <path d="M66.2885,45.9482 L69.0563,45.8443 C80.6898,45.4075 89.7665,35.6227 89.3298,23.9892 L89.191,20.2908 C88.7542,8.6573 78.9694,-0.4194 67.3359,0.0173 L64.5681,0.1212 C52.9346,0.558 43.8579,10.3428 44.2946,21.9763 L44.4335,25.6747 C44.8702,37.3082 54.655,46.385 66.2885,45.9482 Z" id="Path" fill="#DEBC97"></path>
                    <path d="M6.2086,85.4487 C3.2726,80.1955 1.3103,73.8203 5.1447,68.1239 C8.9791,62.4275 17.9959,62.1522 21.2935,55.8131 C24.5912,49.4738 21.1177,44.199 23.006,39.2078 C25.238,33.3077 29.5648,33.1065 35.0521,30.0879 C44.3324,24.9827 44.8929,16.1295 44.8929,16.1295 L89.2411,21.6222 C89.2411,21.6222 88.8007,27.9098 92.6908,32.2392 C97.7761,37.8988 101.4479,33.7626 105.6305,40.4312 C108.7629,45.4253 104.7432,48.6501 108.1441,56.1948 C111.0806,62.7093 121.4209,59.99 123.1305,69.1465 C125.4112,81.3619 112.9012,89.2428 111.4789,95.5911 C110.0566,101.9396 111.4733,106.707 112.7478,116.8622 C114.964,134.5216 96.5212,136.2051 88.5151,132.3835 C80.509,128.5617 38.5714,133.9763 36.1811,133.8898 C26.4197,133.5367 -5.0047,127.0004 0.6831,105.8938 C2.496,99.1659 11.3532,94.6536 6.2086,85.4487 Z" id="Path" fill="#DFBA95"></path>
                    <path d="M116.5607,83.0287 L34.1821,66.5806 L46.1927,25.8954 L88.0173,24.8474 L94.9504,39.2078 C94.9504,39.2078 102.7018,41.2781 104.1661,44.9188 C105.6304,48.5595 103.6943,58.1638 105.6303,60.749 C107.5664,63.3342 113.3827,61.7601 116.7818,66.8497 C120.181,71.9393 116.5607,83.0287 116.5607,83.0287 Z" id="Path" fill="url(#linearGradient-1)"></path>
                    <path d="M108.4774,87.9146 C98.759,59.3278 77.0303,55.638 77.0303,55.638 L56.5079,55.3257 C56.5079,55.3257 43.9433,58.7293 36.2617,68.2854 C20.9519,87.3313 28.2387,131.5114 28.4413,131.8623 C28.6437,132.2131 95.5665,136.8122 95.5665,136.8122 L96.9431,118.144 C107.8586,121.831 115.0454,107.2345 108.4774,87.9146 Z" id="Path" fill="#8C8CC4"></path>
                    <path d="M32.7198,39.577 C29.4094,44.3556 21.2935,107.256 21.2935,107.256 C21.2935,107.256 5.0939,124.7826 15.6584,135.1232 C25.1379,144.4018 41.073,144.7995 40.5992,140.8635 C39.4088,130.9754 35.9819,114.131 38.8744,109.8912 C42.78,104.1665 34.3165,100.8896 34.9122,96.6917 C35.5079,92.4939 44.8438,91.4789 45.2866,87.9292 C46.1864,80.7151 35.2446,78.0486 35.5441,73.9308 C35.8436,69.813 42.9801,68.2583 46.4351,63.7559 C49.3052,60.0005 48.9767,56.3775 45.494,49.5735 C44.6802,48.174 44.2574,46.7179 44.6685,45.1046 C46.0854,39.5718 50.5919,40.1727 53.2879,34.7659 C55.1277,31.0794 54.6578,24.4069 54.1712,20.529 C53.866,20.6546 48.1651,19.7352 48.1651,19.7352 C48.1651,19.7352 36.0314,34.7896 32.7198,39.577 Z" id="Path" fill="#DFBA95"></path>
                    <path d="M59.91,37.6948 C59.91,37.6948 60.4574,47.3496 58.8627,52.2336 C58.207,54.2419 56.4269,55.3466 55.1017,55.7698 C55.1017,55.7698 64.374,62.7712 77.0302,55.6381 C77.0302,55.6381 72.9279,54.5919 71.8367,51.9059 C70.5651,48.7759 71.7396,41.8904 71.7396,41.8904 L59.91,37.6948 Z" id="Path" fill="url(#radialGradient-2)"></path>
                    <path d="M68.8707,46.3936 L68.8707,46.3936 C76.9011,46.0921 83.1666,39.3378 82.8651,31.3074 L82.616,24.6713 C82.3145,16.6409 75.5602,10.3754 67.5298,10.6769 L67.5298,10.6769 C59.4994,10.9784 53.2339,17.7327 53.5354,25.7631 L53.7845,32.3992 C54.086,40.4296 60.8403,46.6951 68.8707,46.3936 Z" id="Path" fill="#F9DDBF"></path>
                    <path d="M53.3131,34.8938 L57.2544,34.7458 L56.9757,27.3211 L53.0344,27.4691 C50.9841,27.5461 49.3844,29.2706 49.4614,31.3208 L49.4614,31.3208 C49.5384,33.3711 51.2629,34.9708 53.3131,34.8938 Z" id="Path" fill="#F9DDBF"></path>
                    <path d="M83.0731,33.7934 L79.1318,33.9414 L78.8531,26.5167 L82.7944,26.3687 C84.8447,26.2917 86.5692,27.8914 86.6461,29.9417 L86.6461,29.9417 C86.723,31.992 85.1233,33.7165 83.0731,33.7934 Z" id="Path" fill="#F9DDBF"></path>
                    <polygon id="Path" fill="url(#radialGradient-3)" points="70.2458 39.4131 79.9678 39.0481 79.3066 21.4366 69.5846 21.8016"></polygon>
                    <ellipse id="Oval" fill="#33322E" transform="translate(75.723946, 28.289559) rotate(-2.149088) translate(-75.723946, -28.289559) " cx="75.7239459" cy="28.2895587" rx="1.24790421" ry="2.36990799"></ellipse>
                    <ellipse id="Oval" fill="#33322E" transform="translate(63.380556, 28.752712) rotate(-2.149088) translate(-63.380556, -28.752712) " cx="63.3805563" cy="28.7527119" rx="1.24790421" ry="2.36990799"></ellipse>
                    <g id="Layer0_24_FILL_1_" transform="translate(68.000000, 26.000000)" fill="#F9DDBF">
                        <path d="M2.1525,10.9262 C2.2519,9.4437 3.868,8.6582 4.5022,7.9576 C4.7849,7.6453 4.8303,7.1708 4.5558,6.8513 C3.7094,5.8663 2.2755,4.5938 1.7547,0.3317 C0.9946,1.8408 -0.6125,7.6497 2.1525,10.9262 Z" id="Path"></path>
                    </g>
                    <g id="Layer0_25_FILL_1_" transform="translate(49.000000, 9.000000)" fill="#DEBC97">
                        <path d="M9.5675,17.3211 C10.4877,16.8364 11.3384,16.2016 12.1196,15.4166 C14.0503,13.4412 15.0055,9.9189 15.0733,7.1978 L24.1335,6.8577 C24.3712,9.5673 25.5708,13.0087 27.6442,14.8338 C29.7164,16.625 32.1437,17.4683 34.9262,17.3639 C36.7925,17.2938 38.4896,16.7884 40.0174535,15.8475 C40.0399,15.5408 32.9606,0.3078 32.9606,0.3078 L5.3726,1.3435 C1.7854,10.789 0.08,16.9561 0.1683,17.4964 C1.6906,18.2208 3.3172,18.5505 5.0478,18.4856 C6.7052,18.4233 8.2118,18.0351 9.5675,17.3211" id="Path"></path>
                    </g>
                    <g id="Layer0_26_FILL_1_" transform="translate(68.000000, 2.000000)" fill="url(#radialGradient-4)">
                        <polygon id="Path" points="0.6071 14.1295 8.2421 13.8429 7.7242 0.0489 0.0892 0.3355"></polygon>
                    </g>
                    <path d="M68.6071,16.1295 L73.1372,15.9594 L73.1372,15.9594 C73.0918,14.7506 72.0751,13.8075 70.8663,13.8529 L70.7136,13.8586 C69.5048,13.904 68.5617,14.9207 68.6071,16.1295 L68.6071,16.1295 Z" id="Path" fill="#BF8F68"></path>
                    <path d="M64.077,16.2996 L68.6071,16.1295 L68.6071,16.1295 C68.5617,14.9207 67.545,13.9776 66.3362,14.023 L66.1835,14.0287 C64.9747,14.0741 64.0316,15.0908 64.077,16.2996 L64.077,16.2996 Z" id="Path" fill="#BF8F68"></path>
                    <g opacity="0.5" transform="translate(65.000000, 37.000000)" fill="#BF8F68" id="Path">
                        <path d="M6.5222,2.3523 C6.1233,2.8242 5.6332,3.1049 5.0736,3.2849 C4.5174,3.4674 3.8897,3.496 3.264,3.3653 C2.6409,3.2297 2.0341,2.8816 1.6299,2.3938 C1.1976,1.9262 0.9934,1.3282 0.9701,0.7458 C0.9614,0.528 1.1309,0.3445 1.3486,0.3358 C1.4226,0.3328 1.4926,0.3504 1.5532,0.3835 L1.6083,0.4139 C2.0798,0.6734 2.4104,0.921 2.7546,1.0661 C3.0882,1.2201 3.3814,1.3387 3.7201,1.4046 C4.3796,1.5802 5.2032,1.5915 6.2061,1.7063 L6.269,1.7135 C6.4829,1.738 6.6364,1.9312 6.612,2.1451 C6.6027,2.2245 6.5704,2.2955 6.5222,2.3523 Z"></path>
                    </g>
                </g>
                <g transform="translate(80.000000, 12.000000)">
                    <path d="M60.1286,35.0415 C61.2516,35.3027 62.3374,35.2663 63.3901,35.0282 C63.913,34.9156 64.4072,34.7325 64.8724,34.521 C65.3366,34.3001 65.7421,34.0168 66.1412,33.6518 L66.2,33.598 C66.4688,33.3522 66.8861,33.3709 67.1319,33.6397 C67.2878,33.8102 67.3361,34.0444 67.283,34.2526 C67.0772,35.0347 66.0559,36.9604 63.8571,37.4091 C62.394,37.6633 60.6562,37.0215 59.5744,35.8946 C59.3753,35.6871 59.3821,35.3578 59.5894,35.1586 C59.7204,35.033 59.8997,34.9893 60.0647,35.0263 L60.1286,35.0415 Z" id="Path" fill="#9B653E"></path>
                    <ellipse id="Oval" fill="#615E5B" transform="translate(68.332805, 26.021870) rotate(-89.278039) translate(-68.332805, -26.021870) " cx="68.3328053" cy="26.0218703" rx="2.41535021" ry="1.35657203"></ellipse>
                    <ellipse id="Oval" fill="#615E5B" transform="translate(54.952816, 26.020822) rotate(-89.278039) translate(-54.952816, -26.020822) " cx="54.9528161" cy="26.0208222" rx="2.41535021" ry="1.35657203"></ellipse>
                    <path d="M119.0654,91.1933 L119.0654,91.1931 C119.0654,82.6869 117.9538,74.4414 115.8774,66.588 C104.0393,57.9178 85.1057,53.5215 69.9151,54.2289 L68.8315,54.2683 C15.2523,52.3824 3.8708,91.0136 1.7434,128.6492 L0.8653,144.1806 C-0.0578,160.5108 3.5466,174.9225 10.9459,186.4445 C14.9125,186.9438 18.954,187.2024 23.0561,187.2024 L23.0563,187.2024 C76.0808,187.2024 119.0654,144.2176 119.0654,91.1933 Z" id="Path" fill="url(#linearGradient-5)"></path>
                    <path d="M48.3566,59.9393 L52.9078,50.9229 L83.3695,46.4197 C83.3695,46.4197 83.2778,50.9228 85.8862,52.8014 C85.8902,52.8042 48.3566,59.9393 48.3566,59.9393 Z" id="Path" fill="#FFD591"></path>
                    <path d="M60.3398,66.2484 L52.9073,50.9229 L77.751,46.4197 C77.751,46.4197 77.6762,50.9228 79.8036,52.8014 C79.8067,52.8042 60.3398,66.2484 60.3398,66.2484 Z" id="Path" fill="#969593"></path>
                    <path d="M58.4342,17.3453 L86.8291,16.216 L88.4572,63.6169 L61.4281,68.2677 C61.4281,68.2677 59.2398,62.4164 58.4661,56.3123 C57.6527,49.8958 58.4342,17.3453 58.4342,17.3453 Z" id="Path" fill="#DFBA95"></path>
                    <polygon id="Path" fill="#F6B548" points="68.7835 50.9228 59.5203 69.1447 95.9233 70.017 89.184 50.9844"></polygon>
                    <path d="M71.4294,60.8553 L68.7834,50.9228 L90.0596,48.8439 C90.0596,48.8439 90.9065,55.1084 94.3442,56.8751 C87.4349,58.1349 71.4294,60.8553 71.4294,60.8553 Z" id="Path" fill="#FFD591"></path>
                    <path d="M86.388,17.6489 L86.1042,35.0693 C86.0442,39.8422 82.1675,48.9128 71.5026,48.7593 L60.6854,48.5813 C54.5489,48.5041 49.5772,44.5359 49.6372,39.763 L49.921,17.1903 C49.981,12.4174 55.0509,8.5754 61.1876,8.6526 L75.3396,8.8306 C81.4765,8.9079 86.4482,12.876 86.388,17.6489 Z" id="Path" fill="#DFBA95"></path>
                    <path d="M49.8132,33.612 C49.8189,33.656 49.8215,33.6961 49.827,33.7401 L49.8162,33.7389 L49.8132,33.612 Z" id="Path" fill="#9C97AE"></path>
                    <path d="M71.4284,37.1318 C71.3665,42.0548 68.6754,46.3273 64.7075,48.6309 C62.6696,49.817 60.2944,50.4815 57.7679,50.4498 C50.3182,50.3562 44.3563,44.2424 44.4499,36.7926 C44.476,34.7133 44.9714,32.75 45.8313,31.0016 C46.7699,29.1039 48.1358,27.4587 49.8075,26.1944 C52.1127,24.4509 54.9931,23.4322 58.1072,23.4714 C62.5697,23.5276 66.501,25.7435 68.9121,29.1153 C70.5294,31.372 71.466,34.1445 71.4284,37.1318 Z" id="Path" fill="#DFBA95"></path>
                    <circle id="Oval" fill="#DFBA95" cx="87.8865" cy="27.4313" r="5.4874"></circle>
                    <path d="M86.4256,14.6636 L86.1691,35.0693 C86.0606,43.6953 79.0026,50.6123 70.3763,50.5467 L58.0122,50.4527 C50.5915,50.3594 44.4506,44.3907 44.4487996,36.9693 C44.4483,34.8244 44.9471,32.7993 45.8312,31.0013 L73.3885,31.3209 C76.376,31.3554 78.8264,28.9632 78.8641,25.9759 L79.0077,14.5615 L86.4256,14.6636 Z" id="Path" fill="#BF8F68"></path>
                    <path d="M75.6228,4.3183 L74.6483,4.3183 C72.4446,15.2321 78.731,21.8627 87.8864,21.9439 L87.7757,16.8666 C87.7757,8.9538 83.1721,4.3183 75.6228,4.3183 Z" id="Path" fill="#BF8F68"></path>
                    <path d="M75.5294,11.7516 L62.4243,11.6465 L58.1558,11.6078 L53.2444,11.6357 L52.468,11.6409 C52.468,11.6409 49.9326,10.2807 50.2036,6.5224 C50.3319,4.6731 50.9179,3.1579 51.4685,2.09 C52.0645,1.0075 52.6093,0.3875 52.6093,0.3875 C52.6093,0.3875 52.9571,1.2429 54.0058,2.122 C54.921,2.8948 56.3892,3.6895 58.6252,3.9414 C59.0575,3.9917 60.5495,4.0552 62.519,4.0949 C63.638,4.1384 64.9066,4.1697 66.2495,4.2012 C66.2949,4.1872 66.3391,4.2024 66.3988,4.203 L75.6226,4.319 L75.5294,11.7516 Z" id="Path" fill="#BF8F68"></path>
                    <polygon id="Path" fill="url(#radialGradient-6)" points="50.149 9.6221 49.505 52.8256 61.2671 53.2464 61.9111 10.0429"></polygon>
                    <path d="M57.6248,27.0717 C57.5086,27.2619 57.2602,27.3214 57.0702,27.2051 L56.9955,27.1596 C56.3104,26.7392 55.7601,26.356 55.2437,26.3689 C54.6571,26.2791 54.2221,26.4251 53.6283,26.904 L53.5255,26.987 C53.459,27.0405 53.3738,27.0711 53.2818,27.0677 C53.0795,27.0597 52.9218,26.8897 52.9294,26.6873 C52.9513,26.1023 53.2299,25.5982 53.7106,25.2156 C54.194,24.8333 54.8207,24.7299 55.3783,24.7439 C56.6073,24.8841 57.4968,25.7672 57.6779,26.7905 C57.6945,26.8841 57.6785,26.9844 57.6248,27.0717 Z" id="Path" fill="#231F20"></path>
                    <path d="M54.5038,32.1319 C54.4734,32.1319 54.4431,32.1311 54.4127,32.1311 C50.474,32.081 47.3104,28.8368 47.3596,24.8983 L47.3596,24.8983 C47.3834,22.9905 48.1492,21.2059 49.5152,19.8736 C50.882,18.5421 52.701,17.8444 54.5923,17.8452991 C56.5001,17.8692 58.2847,18.6349 59.617,20.0009 C60.9494,21.3669 61.6692,23.1704 61.6454,25.0781 C61.5965,28.9864 58.4016,32.1312 54.5038,32.1319 Z M54.5007,19.3943 C53.0337,19.3943 51.6498,19.9575 50.5973,20.9835 C49.5277,22.026 48.9284,23.4241 48.9096,24.918 C48.8702,28.0021 51.3485,30.5427 54.4326,30.5814 C54.4564,30.5822 54.4802,30.5822 54.5041,30.5822 C57.5561,30.5822 60.0574,28.1188 60.096,25.0585 C60.1148,23.5644 59.551,22.1526 58.5076,21.083 C57.4651,20.0134 56.067,19.4141 54.5731,19.3953 C54.5491,19.3943 54.5244,19.3943 54.5007,19.3943 Z" id="Shape" fill="#6F70AC"></path>
                    <path d="M61.1618,31.6106 L61.1618,31.6106 C58.9843,31.5834 57.225,29.7796 57.2522,27.602 L57.2522,27.6014 C57.2795,25.424 59.0833,23.6647 61.2607,23.6918 L61.2612,23.6918 C63.4387,23.719 65.198,25.5228 65.1708,27.7004 L65.1708,27.7005 C65.1436,29.8782 63.3394,31.6378 61.1618,31.6106 Z" id="Path" fill="#DFBA95"></path>
                    <path d="M69.0558,32.315 C69.0254,32.315 68.9951,32.3142 68.9647,32.3142 C65.026,32.2641 61.8624,29.0199 61.9116,25.0814 L61.9116,25.0814 C61.9355,23.1736 62.7013,21.389 64.0672,20.0567 C65.4332,18.7252 67.2351,18.0447 69.1443,18.0284 C71.0521,18.0523 72.8367,18.818 74.169,20.184 C75.5014,21.55 76.2212,23.3527 76.1974,25.2612 C76.1483,29.1693 72.9534,32.3142 69.0558,32.315 Z M69.0525,19.5774 C67.5855,19.5774 66.2015,20.1406 65.1491,21.1666 C64.0795,22.2091 63.4802,23.6072 63.4614,25.1011 L63.4614,25.1011 C63.422,28.1852 65.9003,30.7258 68.9844,30.7645 C72.0717,30.8655 74.6091,28.3256 74.6478,25.2415 C74.6666,23.7474 74.1028,22.3356 73.0594,21.266 C72.0169,20.1964 70.6188,19.5971 69.1249,19.5783 C69.101,19.5774 69.0764,19.5774 69.0525,19.5774 Z" id="Shape" fill="#6F70AC"></path>
                    <path d="M83.5601,19.1676 L86.3162,25.2019 L86.3162,23.4581 C86.3162,22.6249 86.9895,21.9484 87.8226,21.9443 L87.8864,21.944 L83.5601,19.1676 Z" id="Path" fill="#BF8F68"></path>
                    <rect id="Rectangle" fill="#6F70AC" transform="translate(80.913101, 25.179765) rotate(-89.278039) translate(-80.913101, -25.179765) " x="80.1381666" y="19.8046761" width="1.54986805" height="10.7501784"></rect>
                    <path d="M49.5361,49.1366 L49.5395,49.1441 C49.4797,49.1457 49.4161,49.1434 49.3563,49.1452 L49.5361,49.1366 Z" id="Path" fill="#D7D0E6"></path>
                    <path d="M70.4888,27.0198 C70.3694,27.2083 70.1202,27.2643 69.932,27.1452 L69.858,27.0985 C69.1792,26.6686 68.6344,26.2775 68.1178,26.2829 C67.5329,26.1845 67.0952,26.3243 66.4951,26.7944 L66.3911,26.8759 C66.3237,26.9285 66.2379,26.9579 66.1463,26.9531 C65.944,26.9424 65.7886,26.77 65.7992,26.5678 C65.8301,25.9833 66.1155,25.4832 66.6017,25.1076 C67.0906,24.7321 67.7187,24.6378 68.2765,24.6598 C69.5028,24.8178 70.3798,25.7137 70.5461,26.7395 C70.5612,26.8333 70.5432,26.9332 70.4888,27.0198 Z" id="Path" fill="#231F20"></path>
                    <path d="M66.9341,34.4126 C67.4606,34.3172 67.9655,34.7308 67.938,35.2649 C67.8342,37.2853 66.3489,39.0406 64.2877,39.4148 C62.2107,39.7917 60.201,38.6702 59.3939,36.8151 C59.1802,36.325 59.5077,35.7602 60.0341,35.6646 L66.9341,34.4126 Z" id="Path" fill="#6D3916"></path>
                    <path d="M60.0388,35.6635 L66.9323,34.4144 C67.201,34.3754 67.4671,34.4453 67.6359,34.6186 C66.8719,35.313 65.7285,35.9199 64.3934,36.2666 C62.4199,36.779 60.5602,36.5965 59.5719,35.8929 C59.6985,35.7829 59.8611,35.6937 60.0388,35.6635 Z" id="Path" fill="#FFFFFF"></path>
                </g>
                <polygon id="Path" fill="#E1DFDD" points="131.2788 85.115 98.5282 76.3517 87.0699 117.0775 119.8205 125.8409"></polygon>
                <polygon id="Path" fill="#F3F2F1" points="112.2659 89.6893 78.4457 91.7444 81.8679 132.8033 115.688 130.7483"></polygon>
                <g transform="translate(68.000000, 99.000000)" id="Rectangle">
                    <rect fill="#FFFFFF" transform="translate(22.367284, 26.879507) rotate(-14.832507) translate(-22.367284, -26.879507) " x="5.40790298" y="3.69463627" width="33.9187613" height="46.3697407"></rect>
                    <g transform="translate(7.000000, 7.000000)" fill="#E1DFDD">
                        <rect transform="translate(6.294068, 5.976740) rotate(-14.572663) translate(-6.294068, -5.976740) " x="0.556191716" y="5.17016484" width="11.4757523" height="1.61315112"></rect>
                        <rect transform="translate(19.339771, 5.624439) rotate(-15.188286) translate(-19.339771, -5.624439) " x="15.2154936" y="1.38815767" width="8.24855573" height="8.47256268"></rect>
                        <rect transform="translate(7.934398, 11.619876) rotate(-14.572663) translate(-7.934398, -11.619876) " x="2.25931999" y="10.642006" width="11.3501561" height="1.95574074"></rect>
                        <rect transform="translate(14.828990, 15.851250) rotate(-14.832507) translate(-14.828990, -15.851250) " x="3.79574218" y="14.8733785" width="22.0664953" height="1.9557439"></rect>
                        <rect transform="translate(16.529608, 21.479600) rotate(-14.832507) translate(-16.529608, -21.479600) " x="5.49616032" y="20.5017282" width="22.0668953" height="1.9557439"></rect>
                        <rect transform="translate(18.229810, 27.107930) rotate(-14.832507) translate(-18.229810, -27.107930) " x="7.19636286" y="26.1300579" width="22.0668953" height="1.9557439"></rect>
                    </g>
                </g>
                <path d="M80.2989,62.9652 L80.3715,63.0949 C80.3458,63.0528 80.3208,63.0101 80.2948,62.968 L80.2989,62.9652 Z" id="Path" fill="#8C8CC4"></path>
                <path d="M80.2989,62.9652 L80.3715,63.0949 C80.3458,63.0528 80.3208,63.0101 80.2948,62.968 L80.2989,62.9652 Z" id="Path" fill="url(#radialGradient-7)" opacity="0.15"></path>
                <g transform="translate(13.000000, 63.000000)">
                    <path d="M53.1787,65.0209 L23.7157,64.949 C23.7157,64.949 11.8474,66.2721 0.1913,74.042 C13.879,110.3628 48.9473,136.2023 90.0562,136.2023 L90.0564,136.2023 C92.1705,136.2023 94.2665,136.1264 96.3466,135.9919 L97.665,112.0208 C99.0689,86.4917 78.7463,65.0209 53.1787,65.0209 Z" id="Path" fill="#4C4E77"></path>
                    <path d="M36.5242,120.815 C31.1414,93.8345 25.3904,75.0748 16.3114,66.5751 C14.0021,67.2852 11.1837,68.1656 8.2066,69.5997 C16.7214,73.8719 22.6068,90.3643 27.7727,114.1212 C30.5585,116.5107 33.479,118.7473 36.5242,120.815 Z" id="Path" fill="url(#linearGradient-8)"></path>
                    <path d="M30.8367,86.8345 C30.8367,86.8345 32.5359,82.4598 28.0511,82.6663 L20.5701,83.1276 C19.4623,83.212 18.518,83.9637 18.1873,85.0245 C18.1873,85.0245 15.2253,92.3516 12.7836,97.1748 C15.1241,100.3434 17.6529,103.3641 20.357,106.2177 C21.8435,105.3116 23.4174,104.3187 24.128,103.6117 C26.5618,101.1924 27.5502,94.7009 27.5502,94.7009 L30.9985,94.518 C32.3222,94.6829 33.4588,93.5189 32.8624,91.7148 L30.8367,86.8345 Z" id="Path" fill="#9B653E"></path>
                    <path d="M56.7942,30.6822 L22.8359,35.0464 C22.8359,35.0464 19.643,27.0214 18.7329,23.1172 C17.5011,17.8332 20.4554,14.3471 24.2144,13.8658 L47.3441,10.8869 C51.1017,10.4057 54.538,13.0619 55.0191,16.8195 L56.7942,30.6822 Z" id="Path" fill="#FFFFFF"></path>
                    <path d="M23.3618,40.2669 L47.8677,27.442 L50.8878,59.1527 C50.8828,61.1459 53.1634,64.556 57.3942,65.2173 C48.8475,78.5244 31.9415,69.367 16.4146,66.5435 C19.0752,66.1459 21.4924,63.6716 22.5551,60.3458 C25.0437,52.5566 23.3618,40.2669 23.3618,40.2669 Z" id="Path" fill="url(#radialGradient-9)"></path>
                    <circle id="Oval" fill="#9B653E" cx="24.1952" cy="35.5471" r="5.9719"></circle>
                    <path d="M48.0265,55.5043 L44.0341,56.0271 C34.5923,57.2636 25.9581,50.4377 24.7492,40.781 L22.4595,22.4924 C21.9283,18.2492 24.8609,14.3689 29.0097,13.8255 L52.3479,10.7691 C54.6513,10.4675 56.7576,12.1326 57.0526,14.4885 L60.1752,39.4298 C61.1605,47.2998 55.7213,54.4965 48.0265,55.5043 Z" id="Path" fill="#9B653E"></path>
                    <path d="M31.5292,20.3644 C31.5292,25.5167 27.3545,29.6934 22.2047,29.6934 C17.0549,29.6934 25.2389,11.4196 26.5322,12.0988 C29.5028,13.6588 31.5292,16.7749 31.5292,20.3644 Z" id="Path" fill="#FFFFFF"></path>
                    <path d="M49.1875,15.8766 C44.1429,15.5403 38.7791,13.0442 33.8089,13.4655 C26.0486,14.1232 22.8607,18.3636 22.8607,18.3636 L23.1963,14.7216 C20.295,7.8988 26.8038,4.5364 33.1861,5.6663 C42.0813,7.2411 39.1867,3.0329 42.933,2.3168 C46.887,1.561 47.4905,5.4092 50.5825,5.2646 C54.2123,5.0948 53.5198,-0.1971 58.8255,0.3777 C64.1294,0.9523 68.0413,17.1335 49.1875,15.8766 Z" id="Path" fill="#FFFFFF"></path>
                    <ellipse id="Oval" fill="#33322E" transform="translate(38.093069, 30.224344) rotate(-7.296288) translate(-38.093069, -30.224344) " cx="38.0930693" cy="30.2243443" rx="1.51619591" ry="2.79879246"></ellipse>
                    <path d="M58.418,45.7515 L46.8463,47.2194 L45.9967,40.3236 C45.9164,39.6702 46.17,39.0202 46.6716,38.5938 L49.2388,36.4113 C49.7975,35.9364 49.8697,35.1002 49.4007,34.5365 L46.5084,31.0599 C45.8189,30.2311 45.3808,29.2225 45.2457,28.1529 L44.3858,21.5538 L56.4165,20.0277 L58.418,45.7515 Z" id="Path" fill="url(#radialGradient-10)"></path>
                    <ellipse id="Oval" fill="#33322E" transform="translate(51.602436, 28.570745) rotate(-7.296288) translate(-51.602436, -28.570745) " cx="51.6024359" cy="28.5707447" rx="1.51619591" ry="2.79879246"></ellipse>
                    <path d="M40.7597,41.5433 C41.4422,41.9318 42.0281,42.2308 42.6213,42.4596 C43.2175,42.6765 43.8006,42.8386 44.4024,42.9363 C45.0034,43.0345 45.6115,43.074 46.243,43.0693 C46.8759,43.0484 47.5122,42.9809 48.2643,42.8228 L48.3112,42.8129 C48.5752,42.7574 48.8341,42.9264 48.8896,43.1904 C48.9146,43.3095 48.8936,43.4283 48.8391,43.5271 C48.3914,44.3371 47.5839,44.9085 46.717,45.2166 C45.8461,45.5413 44.8885,45.6066 43.9743,45.4465 C42.157,45.1477 40.4237,43.8228 40.0109,42.0587 C39.9496,41.7967 40.1123,41.5345 40.3743,41.4732 C40.4985,41.4441 40.6226,41.4654 40.7255,41.5237 L40.7597,41.5433 Z" id="Path" fill="#76452B"></path>
                </g>
                <g transform="translate(103.000000, 80.000000)">
                    <path d="M72.5565,23.0891 C72.4701,22.6629 70.8907,17.2804 69.8358,15.2161 C66.1735,8.0761 59.7314,2.7665 51.7098,1.2455 C44.2128,-0.1759 36.8079,1.9731 30.9596,6.5828 C30.9404,6.5959 30.9211,6.609 30.9005,6.63 C29.5665,7.6838 17.4504,16.1034 19.3226,33.9315 C19.3949,34.6201 19.427,35.3091 19.39,36.0005 C19.1455,40.5707 17.4496,58.1129 5.694,75.651 C-1.9785,87.0975 -0.2266,103.2474 9.5712,117.2655 C30.1973,115.5335 48.9935,107.3838 63.971,94.8284 C74.4405,85.4807 82.8503,73.8756 88.4292,60.773 C82.1292,49.8723 75.4172,38.6527 72.5565,23.0891 Z" id="Path" fill="#3B322F"></path>
                    <path d="M83.3198,71.0256 C76.9775,65.2584 67.8586,60.7005 55.2029,60.7005 C35.71,60.7005 19.6146,75.4329 18.8923,91.2653 C18.6557,96.4568 17.4973,108.4241 16.3904,117.8124 C45.0289,112.9032 69.3364,95.3147 83.3198,71.0256 Z" id="Path" fill="#8C8CC4"></path>
                    <path d="M60.3021,37.0378 C56.1448,39.0055 45.0024,47.8429 45.0024,47.8429 C45.0024,47.8429 48.251,54.1083 47.9322,58.033 C47.6797,61.1413 40.3271,63.7065 40.3271,63.7065 C40.3271,63.7065 46.9377,68.6773 53.0493,67.8611 C61.1064,66.7851 61.2256,64.856 69.9413,63.0669 C69.677,62.9542 66.0906,60.8702 64.7238,58.2829 C62.4218,53.9255 61.8009,46.967 60.3021,37.0378 Z" id="Path" fill="#BF8F68"></path>
                    <circle id="Oval" fill="#F8CA54" cx="29.4281" cy="46.3615" r="2.5879"></circle>
                    <path d="M60.5921,30.8216 C61.4069,42.6799 52.4217,52.9126 43.8994,53.1342 C35.3771,53.3558 26.5149,45.9689 25.4691,34.1287 C24.1371,19.0484 32.5014,11.5061 41.0237,11.2845 C49.5461,11.0628 59.7774,18.9633 60.5921,30.8216 Z" id="Path" fill="#BF8F68"></path>
                    <ellipse id="Oval" fill="#3B322F" transform="translate(46.785865, 31.951879) rotate(-4.381568) translate(-46.785865, -31.951879) " cx="46.7858655" cy="31.951879" rx="1.45623303" ry="2.64005989"></ellipse>
                    <path d="M40.1664,22.3846 L40.2286,28.7365 C40.1722,31.9884 38.641,34.2525 37.4566,35.523 C36.794,36.2338 36.569,37.9251 37.4814,38.9149 C37.9774,39.4529 40.0698,40.614 40.1731,42.1173 L40.3875,47.99 L28.5715,48.3858 L27.3495,22.3249 L40.1664,22.3846 Z" id="Path" fill="url(#radialGradient-11)"></path>
                    <path d="M39.78,43.8599 C40.3798,43.7015 40.9488,43.6099 41.4487,43.5041 C41.9546,43.3865 42.4049,43.2749 42.8269,43.1356 C43.253,43.0026 43.6488,42.8466 44.0837,42.6386 C44.5306,42.4442 44.964,42.1543 45.5757,41.8636 L45.6414,41.8324 C45.8978,41.7106 46.2043,41.8197 46.3261,42.076 C46.3652,42.1582 46.3803,42.2479 46.3746,42.3327 C46.3232,43.0616 46.0436,43.783 45.5293,44.3511 C45.0491,44.9496 44.3483,45.3906 43.6076,45.6106 C42.867,45.8391 42.0889,45.8765 41.3759,45.7186 C40.6579,45.5658 40.0092,45.276 39.4528,44.7268 C39.2563,44.5328 39.2542,44.2162 39.4482,44.0196 C39.5129,43.954 39.5913,43.9101 39.6744,43.8879 L39.78,43.8599 Z" id="Path" fill="#9B653E"></path>
                    <path d="M33.7633,9.6692 C33.7633,9.6692 31.2824,21.8428 43.0701,23.8435 C53.6878,25.6457 57.9007,27.3582 60.5922,30.8215 C65.2108,26.1838 65.0931,14.9115 58.1982,9.9556 C44.7834,0.3135 33.7633,9.6692 33.7633,9.6692 Z" id="Path" fill="#3B322F"></path>
                    <ellipse id="Oval" fill="#3B322F" transform="translate(33.630874, 32.279091) rotate(-6.038395) translate(-33.630874, -32.279091) " cx="33.630874" cy="32.2790914" rx="1.45467076" ry="2.63302807"></ellipse>
                    <path d="M57.5168,39.9529 L63.4411,39.112 C65.9645,38.7538 67.6282,36.4063 67.1569,33.8687 L67.1569,33.8687 C66.6857,31.3311 64.258,29.5643 61.7346,29.9225 L55.8103,30.7634 L57.5168,39.9529 Z" id="Path" fill="#BF8F68"></path>
                    <circle id="Oval" fill="#F8CA54" cx="61.4935" cy="41.7406" r="2.5879"></circle>
                </g>
                <path d="M121.8724,177.2321 C121.5049,176.1659 120.5014,175.4504 119.3736,175.4504 L64.0908,175.4504 C62.6963,175.4504 61.717,176.8238 62.1714,178.1422 L66.9619,192.1791 C78.1056,196.7038 90.2883,199.2023 103.0561,199.2023 L103.0563,199.2023 C111.8189,199.2023 120.3047,198.0217 128.3703,195.8225 L121.8724,177.2321 Z" id="Path" fill="#D6CED7"></path>
            </g>
            <g id="Group" transform="translate(90.000000, 29.000000)">
                <path d="M25.9774,23.7017 L10.9774,23.7017 C5.4545,23.7017 0.9774,19.2245 0.9774,13.7017 L0.9774,10.8742 C0.9774,5.3514 5.4545,0.8742 10.9774,0.8742 L25.9774,0.8742 C31.5003,0.8742 35.9774,5.3514 35.9774,10.8742 L35.9774,13.7017 C35.9774,19.2246 31.5002,23.7017 25.9774,23.7017 Z" id="Path" fill="#FFFFFF"></path>
                <g transform="translate(9.000000, 8.000000)" fill="#E1DFDD" id="Rectangle">
                    <rect x="0.6545" y="5.871" width="17.6457" height="2.4451"></rect>
                    <rect x="0.6545" y="0.2599" width="12.2617" height="2.4451"></rect>
                </g>
            </g>
            <g id="Group" transform="translate(88.000000, 0.000000)">
                <path d="M25.1304,22.8275 L10.1304,22.8275 C4.6076,22.8275 0.1304,18.3503 0.1304,12.8275 L0.1304,10 C0.1304,4.4772 4.6076,0 10.1304,0 L25.1304,0 C30.6533,0 35.1304,4.4772 35.1304,10 L35.1304,12.8275 C35.1304,18.3503 30.6532,22.8275 25.1304,22.8275 Z" id="Path" fill="#C8C6C4"></path>
                <circle id="Oval" fill="#EDEBE9" cx="10.759" cy="11.537" r="1.8423"></circle>
                <circle id="Oval" fill="#EDEBE9" cx="17.6304" cy="11.537" r="1.8423"></circle>
                <circle id="Oval" fill="#EDEBE9" cx="24.5016" cy="11.537" r="1.8423"></circle>
                <path d="M12.3934,22.7993 C11.5628,24.7221 9.662,26.4979 7.5335,26.4932093 C7.0866,26.4922 6.65,26.4353 6.2338,26.3278 C7.348,25.5022 8.1118,24.2294 8.277,22.7728" id="Path" fill="#C8C6C4"></path>
            </g>
        </g>
    </g>
</svg>